<?xml version="1.0" standalone="no"?><!DOCTYPE svg PUBLIC "-//W3C//DTD SVG 1.1//EN" "http://www.w3.org/Graphics/SVG/1.1/DTD/svg11.dtd"><svg t="1623252499403" class="icon" viewBox="0 0 1024 1024" version="1.1" xmlns="http://www.w3.org/2000/svg" p-id="2741" xmlns:xlink="http://www.w3.org/1999/xlink" width="200" height="200"><defs><style type="text/css"></style></defs><path d="M332.256417 162.431501c-12.000108-4.992017-25.727295-2.239699-34.880473 6.944443L105.375944 361.375944c-12.512727 12.512727-12.512727 32.735385 0 45.248112s32.735385 12.512727 45.248112 0l137.376804-137.376804 0 530.751888c0 17.695686 14.336138 32.00086 31.99914 32.00086s31.99914-14.303454 31.99914-32.00086L351.99914 192C352.00086 179.072705 344.191157 167.392555 332.256417 162.431501z" p-id="2742"></path><path d="M918.624056 617.375944c-12.512727-12.512727-32.735385-12.512727-45.248112 0l-105.375944 105.375944L768 192c0-17.664722-14.303454-32.00086-32.00086-32.00086s-32.00086 14.336138-32.00086 32.00086l0 608.00086c0 12.927295 7.775299 24.640129 19.744443 29.568499 3.968499 1.663432 8.12794 2.432361 12.256417 2.432361 8.320602 0 16.512189-3.263217 22.624056-9.376804l160.00086-160.00086C931.136783 650.111329 931.136783 629.888671 918.624056 617.375944z" p-id="2743"></path></svg>